<svg width="17" height="17" viewBox="0 0 17 17" fill="none" xmlns="http://www.w3.org/2000/svg">
<g id="ep:arrow-right-bold">
<path id="Vector" d="M5.793 2.13605C5.60553 2.32358 5.50021 2.57788 5.50021 2.84305C5.50021 3.10821 5.60553 3.36252 5.793 3.55005L10.743 8.50005L5.793 13.45C5.61084 13.6387 5.51005 13.8913 5.51233 14.1535C5.5146 14.4156 5.61977 14.6665 5.80518 14.8519C5.99059 15.0373 6.2414 15.1424 6.5036 15.1447C6.7658 15.147 7.0184 15.0462 7.207 14.864L12.864 9.20705C13.0515 9.01952 13.1568 8.76521 13.1568 8.50005C13.1568 8.23488 13.0515 7.98058 12.864 7.79305L7.207 2.13605C7.01947 1.94858 6.76516 1.84326 6.5 1.84326C6.23484 1.84326 5.98053 1.94858 5.793 2.13605Z" fill="white"/>
</g>
</svg>
