<svg width="17" height="17" viewBox="0 0 17 17" fill="none" xmlns="http://www.w3.org/2000/svg">
<g id="fluent:live-20-regular">
<path id="Vector" d="M3.70001 3.68395C3.777 3.60923 3.88052 3.56815 3.98779 3.56975C4.09507 3.57134 4.19732 3.61548 4.27206 3.69245C4.35377 3.77767 4.39861 3.89166 4.39686 4.00972C4.39511 4.12778 4.34691 4.24039 4.26271 4.32315C3.16354 5.43526 2.54799 6.93642 2.54996 8.50005C2.54996 10.1915 3.25546 11.7182 4.38936 12.8011C4.43314 12.8415 4.46842 12.8903 4.49315 12.9445C4.51788 12.9988 4.53155 13.0574 4.53337 13.117C4.53519 13.1766 4.52512 13.2359 4.50375 13.2916C4.48238 13.3472 4.45014 13.398 4.40891 13.4411C4.33579 13.5166 4.23609 13.5607 4.13101 13.5638C4.02593 13.567 3.92375 13.5291 3.84621 13.4581C3.1678 12.8229 2.62721 12.0549 2.25801 11.202C1.8888 10.3491 1.69885 9.42944 1.69996 8.50005C1.69996 6.61815 2.46496 4.91475 3.70001 3.68395ZM12.7372 4.32315C12.6531 4.24027 12.6051 4.1276 12.6035 4.00954C12.6019 3.89149 12.6469 3.77756 12.7287 3.69245C12.8034 3.61574 12.9055 3.57176 13.0125 3.57017C13.1196 3.56858 13.2229 3.60949 13.2999 3.68395C13.9347 4.31492 14.4383 5.06536 14.7816 5.89198C15.1249 6.71859 15.301 7.60499 15.3 8.50005C15.3 10.455 14.4755 12.2179 13.1537 13.4581C13.0762 13.5291 12.974 13.567 12.8689 13.5638C12.7638 13.5607 12.6641 13.5166 12.591 13.4411C12.5499 13.3981 12.5178 13.3473 12.4965 13.2917C12.4752 13.2361 12.4652 13.1769 12.467 13.1174C12.4688 13.0579 12.4824 12.9994 12.5071 12.9452C12.5317 12.8911 12.5669 12.8423 12.6106 12.8019C13.1927 12.247 13.656 11.5795 13.9722 10.8399C14.2884 10.1004 14.4509 9.30433 14.45 8.50005C14.452 6.93616 13.8364 5.43557 12.7372 4.32315ZM5.21216 5.17655C5.2879 5.10441 5.3892 5.06532 5.49377 5.06787C5.59834 5.07042 5.69762 5.1144 5.76976 5.19015C5.94656 5.36695 5.92871 5.65765 5.75446 5.83615C5.06083 6.54926 4.67344 7.50525 4.67496 8.50005C4.67496 9.59655 5.13651 10.5859 5.87686 11.2838C6.06386 11.4597 6.08936 11.7606 5.90661 11.9434C5.83655 12.0162 5.74117 12.0593 5.64022 12.0638C5.53926 12.0682 5.44047 12.0336 5.36431 11.9672C4.87909 11.5294 4.49131 10.9945 4.22613 10.3972C3.96094 9.79994 3.82426 9.15357 3.82496 8.50005C3.82402 7.88173 3.9462 7.26942 4.18437 6.69881C4.42253 6.1282 4.77192 5.61072 5.21216 5.17655ZM11.2455 5.83615C11.0712 5.65765 11.0534 5.36695 11.2302 5.19015C11.3023 5.1144 11.4016 5.07042 11.5061 5.06787C11.6107 5.06532 11.712 5.10441 11.7878 5.17655C12.2279 5.61081 12.5772 6.12831 12.8153 6.69889C13.0535 7.26948 13.1757 7.88175 13.175 8.50005C13.1759 9.15365 13.0394 9.80014 12.7743 10.3976C12.5093 10.995 12.1216 11.5301 11.6365 11.968C11.56 12.0348 11.4607 12.0693 11.3593 12.0646C11.258 12.0598 11.1624 12.0161 11.0925 11.9425C10.9106 11.7606 10.9361 11.4597 11.1231 11.2838C11.5031 10.9266 11.8058 10.4953 12.0125 10.0165C12.2193 9.53769 12.3256 9.02158 12.325 8.50005C12.3265 7.50525 11.9391 6.54926 11.2455 5.83615ZM8.49996 7.43755C8.21816 7.43755 7.94791 7.54949 7.74865 7.74875C7.5494 7.94801 7.43746 8.21826 7.43746 8.50005C7.43746 8.78184 7.5494 9.05209 7.74865 9.25135C7.94791 9.45061 8.21816 9.56255 8.49996 9.56255C8.78175 9.56255 9.052 9.45061 9.25126 9.25135C9.45051 9.05209 9.56246 8.78184 9.56246 8.50005C9.56246 8.21826 9.45051 7.94801 9.25126 7.74875C9.052 7.54949 8.78175 7.43755 8.49996 7.43755Z" fill="#12B76A"/>
</g>
</svg>
