<svg width="13" height="13" viewBox="0 0 13 13" fill="none" xmlns="http://www.w3.org/2000/svg">
<path d="M12.4583 0H3.79167C3.64801 0 3.51023 0.0570684 3.40865 0.158651C3.30707 0.260233 3.25 0.398008 3.25 0.541667V3.25H0.541667C0.398008 3.25 0.260233 3.30707 0.158651 3.40865C0.0570684 3.51023 0 3.64801 0 3.79167V12.4583C0 12.602 0.0570684 12.7398 0.158651 12.8414C0.260233 12.9429 0.398008 13 0.541667 13H9.20833C9.35199 13 9.48977 12.9429 9.59135 12.8414C9.69293 12.7398 9.75 12.602 9.75 12.4583V9.75H12.4583C12.602 9.75 12.7398 9.69293 12.8414 9.59135C12.9429 9.48977 13 9.35199 13 9.20833V0.541667C13 0.398008 12.9429 0.260233 12.8414 0.158651C12.7398 0.0570684 12.602 0 12.4583 0ZM8.66667 11.9167H1.08333V4.33333H8.66667V11.9167ZM11.9167 8.66667H9.75V3.79167C9.75 3.64801 9.69293 3.51023 9.59135 3.40865C9.48977 3.30707 9.35199 3.25 9.20833 3.25H4.33333V1.08333H11.9167V8.66667Z" fill="black"/>
</svg>
