<svg width="17" height="17" viewBox="0 0 17 17" fill="none" xmlns="http://www.w3.org/2000/svg">
<g id="fluent:live-off-20-regular">
<path id="Vector" d="M2.4259 1.8241C2.38639 1.78458 2.33947 1.75324 2.28785 1.73185C2.23622 1.71047 2.18088 1.69946 2.125 1.69946C2.06912 1.69946 2.01378 1.71047 1.96215 1.73185C1.91053 1.75324 1.86361 1.78458 1.8241 1.8241C1.78458 1.86361 1.75324 1.91053 1.73185 1.96215C1.71047 2.01378 1.69946 2.06912 1.69946 2.125C1.69946 2.18088 1.71047 2.23622 1.73185 2.28785C1.75324 2.33947 1.78458 2.38639 1.8241 2.4259L3.40085 4.0018C2.30288 5.24274 1.69777 6.84305 1.7 8.5C1.7 10.455 2.5245 12.2179 3.84625 13.458C4.00605 13.6076 4.25425 13.5957 4.40895 13.441C4.45005 13.398 4.48218 13.3472 4.50348 13.2917C4.52477 13.2361 4.5348 13.1768 4.53298 13.1174C4.53116 13.0579 4.51753 12.9993 4.49288 12.9452C4.46823 12.891 4.43306 12.8423 4.3894 12.8018C3.80723 12.2469 3.34396 11.5794 3.02776 10.8399C2.71155 10.1004 2.54901 9.30428 2.55 8.5C2.54756 7.06794 3.06391 5.68347 4.0035 4.60275L4.9062 5.508C4.2057 6.34746 3.82295 7.40666 3.825 8.5C3.825 9.8753 4.41915 11.1121 5.3635 11.9672C5.43987 12.034 5.53909 12.0687 5.64045 12.0641C5.74182 12.0595 5.83749 12.0159 5.9075 11.9425C6.0894 11.7606 6.0639 11.4597 5.8769 11.2837C5.49688 10.9266 5.19415 10.4953 4.98742 10.0164C4.7807 9.53764 4.67436 9.02153 4.675 8.5C4.67355 7.63205 4.96864 6.78966 5.5114 6.11235L7.5106 8.11155C7.43516 8.30398 7.41748 8.51424 7.45974 8.71656C7.502 8.91889 7.60235 9.1045 7.7485 9.25065C7.89465 9.3968 8.08026 9.49715 8.28258 9.53941C8.48491 9.58166 8.69517 9.56399 8.8876 9.48855L14.5741 15.1751C14.6538 15.2549 14.7619 15.2997 14.8747 15.2998C14.9875 15.2999 15.0957 15.2552 15.1755 15.1755C15.2553 15.0958 15.3002 14.9877 15.3002 14.8749C15.3003 14.7621 15.2556 14.6539 15.1759 14.5741L13.6 12.9982L12.9965 12.3964L12.0929 11.492L11.4886 10.8876L9.4894 8.88845L8.1124 7.51145L2.4259 1.8241ZM14.1253 12.3216C14.8927 11.1951 15.3022 9.86309 15.3 8.5C15.3 6.6181 14.535 4.9147 13.2999 3.6839C13.223 3.60918 13.1194 3.5681 13.0122 3.5697C12.9049 3.57129 12.8026 3.61543 12.7279 3.6924C12.6462 3.77762 12.6013 3.89161 12.6031 4.00967C12.6048 4.12773 12.653 4.24034 12.7372 4.3231C13.8364 5.43521 14.452 6.93637 14.45 8.5C14.45 9.6815 14.1057 10.7831 13.5116 11.7087L14.1253 12.3216ZM12.5825 10.7797C12.9723 10.0832 13.1763 9.29814 13.175 8.5C13.1759 7.88168 13.0538 7.26937 12.8156 6.69876C12.5774 6.12815 12.228 5.61067 11.7878 5.1765C11.7121 5.10436 11.6108 5.06527 11.5062 5.06782C11.4016 5.07037 11.3023 5.11435 11.2302 5.1901C11.0534 5.3669 11.0712 5.6576 11.2455 5.8361C11.9391 6.54921 12.3265 7.5052 12.325 8.5C12.325 9.09075 12.1915 9.65005 11.9518 10.149L12.5825 10.7797Z" fill="#F04438"/>
</g>
</svg>
