<svg width="28" height="22" viewBox="0 0 28 22" fill="none" xmlns="http://www.w3.org/2000/svg">
<circle cx="11" cy="11" r="10" stroke="#24984B" stroke-width="2"/>
<g clip-path="url(#clip0_716_642)">
<path d="M26.8695 2.2924L12.5565 16.6053C12.4319 16.7304 12.2838 16.8297 12.1206 16.8974C11.9575 16.9651 11.7827 17 11.6061 17C11.4295 17 11.2546 16.9651 11.0915 16.8974C10.9284 16.8297 10.7803 16.7304 10.6556 16.6053L4.3937 10.3434C4.26888 10.2186 4.16987 10.0704 4.10232 9.90735C4.03477 9.74426 4 9.56948 4 9.39296C4 9.21644 4.03477 9.04165 4.10232 8.87857C4.16987 8.71548 4.26888 8.56731 4.3937 8.44249C4.51851 8.31767 4.66669 8.21866 4.82978 8.15111C4.99286 8.08356 5.16765 8.04879 5.34417 8.04879C5.52068 8.04879 5.69547 8.08356 5.85856 8.15111C6.02164 8.21866 6.16982 8.31767 6.29463 8.44249L11.6072 13.755L24.9708 0.393697C25.2229 0.141617 25.5648 0 25.9212 0C26.2777 0 26.6196 0.141617 26.8717 0.393697C27.1238 0.645777 27.2654 0.987671 27.2654 1.34417C27.2654 1.70066 27.1238 2.04255 26.8717 2.29463L26.8695 2.2924Z" fill="#24984B"/>
</g>
<defs>
<clipPath id="clip0_716_642">
<rect width="24" height="17" fill="white" transform="translate(4)"/>
</clipPath>
</defs>
</svg>
