<svg width="20" height="20" viewBox="0 0 20 20" fill="none" xmlns="http://www.w3.org/2000/svg">
<path d="M17.0482 16.738V3.262C17.0482 2.28887 16.2593 1.5 15.2862 1.5L4.71517 1.5C3.74205 1.5 2.95317 2.28887 2.95317 3.262V16.738C2.95317 17.7111 3.74205 18.5 4.71517 18.5H15.2862C16.2593 18.5 17.0482 17.7111 17.0482 16.738Z" fill="#064F8B"/>
<path d="M10.3223 6.28582V4.64282C10.3223 4.36668 10.0984 4.14282 9.82227 4.14282H8.17927C7.90312 4.14282 7.67927 4.36668 7.67927 4.64282V6.28582C7.67927 6.56196 7.90312 6.78582 8.17927 6.78582H9.82227C10.0984 6.78582 10.3223 6.56196 10.3223 6.28582Z" fill="white"/>
<path d="M14.2391 1.5H11.8216V18.5H14.2391V1.5Z" fill="#E5E5E5"/>
</svg>
